<?xml version="1.0" encoding="utf-8"?>
<!-- Generator: Adobe Illustrator 16.0.0, SVG Export Plug-In . SVG Version: 6.00 Build 0)  -->
<!DOCTYPE svg PUBLIC "-//W3C//DTD SVG 1.1//EN" "http://www.w3.org/Graphics/SVG/1.1/DTD/svg11.dtd">
<svg version="1.1" id="Layer_1" xmlns="http://www.w3.org/2000/svg" xmlns:xlink="http://www.w3.org/1999/xlink" x="0px" y="0px"
	 width="83.759px" height="95.492px" viewBox="0 0 83.759 95.492" enable-background="new 0 0 83.759 95.492" xml:space="preserve">
<g>
	<path fill="#C8C8C8" d="M66.791,16.207l-15.006-5.5c0,0-1.876,2.5-9.904,2.5c-8.029,0-9.904-2.5-9.904-2.5l-15.008,5.5
		L3.462,32.374l12.456,10l4.577-5.084v42.75h42.769V37.29l4.577,5.084l12.455-10L66.791,16.207z"/>
	<path fill="#B4B4B4" d="M63.764,80.54H19.996V38.593l-4.021,4.467L2.752,32.444L16.67,15.783l15.482-5.674l0.223,0.298
		c0.014,0.018,1.919,2.3,9.504,2.3c7.584,0,9.49-2.283,9.509-2.306l0.225-0.282l0.343,0.118l15.132,5.546l0.086,0.104l13.833,16.558
		L67.786,43.06l-4.021-4.467V80.54z M20.996,79.54h41.769V35.987l5.133,5.701l11.689-9.385L66.493,16.631l-14.578-5.344
		c-0.769,0.694-3.354,2.42-10.035,2.42c-6.682,0-9.266-1.726-10.035-2.42l-14.58,5.344L4.173,32.304l11.69,9.385l5.133-5.701V79.54z
		"/>
</g>
<g>
	<g>
		<path fill="#FFFFFF" d="M27.158,32.013c4.023-4.656,9.194-7.414,14.941-7.414c7.643,0,13.677,4.023,13.677,11.781
			c0,7.469-9.137,9.309-9.137,12.756v3.16H35.951V47.7c0-5.287,9.137-8.275,9.137-11.436c0-2.184-2.241-2.701-4.252-2.701
			c-2.471,0-5.517,2.414-7.47,4.713L27.158,32.013z M41.007,53.733c4.08,0,6.838,2.816,6.838,6.092c0,3.217-2.644,5.918-6.838,5.918
			c-3.735,0-6.551-2.93-6.551-5.918C34.457,56.952,36.87,53.733,41.007,53.733z"/>
		<path fill="#B4B4B4" d="M41.007,66.243c-4.218,0-7.051-3.318-7.051-6.418c0-3.17,2.696-6.592,7.051-6.592
			c4.184,0,7.338,2.834,7.338,6.592C48.346,63.544,45.259,66.243,41.007,66.243z M41.007,54.233c-3.737,0-6.051,2.902-6.051,5.592
			c0,2.563,2.485,5.418,6.051,5.418c3.673,0,6.338-2.278,6.338-5.418C47.346,56.638,44.621,54.233,41.007,54.233z M47.139,52.796
			H35.451V47.7c0-3.227,2.993-5.545,5.634-7.591c1.801-1.395,3.502-2.712,3.502-3.845c0-1.461-1.263-2.201-3.752-2.201
			c-2.234,0-5.17,2.278-7.089,4.537l-0.353,0.415l-6.916-6.979l0.302-0.351c4.289-4.963,9.586-7.587,15.319-7.587
			c8.612,0,14.177,4.82,14.177,12.281c0,4.696-3.36,7.238-6.06,9.281c-1.651,1.249-3.078,2.329-3.078,3.475V52.796z M36.451,51.796
			h9.688v-2.66c0-1.644,1.61-2.861,3.475-4.272c2.523-1.909,5.663-4.285,5.663-8.483c0-6.854-5.172-11.281-13.177-11.281
			c-5.3,0-10.221,2.382-14.257,6.894l5.5,5.551c1.941-2.152,4.928-4.479,7.493-4.479c3.064,0,4.752,1.137,4.752,3.201
			c0,1.623-1.803,3.02-3.89,4.636c-2.459,1.904-5.247,4.063-5.247,6.8V51.796z"/>
	</g>
</g>
</svg>