<?xml version="1.0" encoding="utf-8"?>
<!-- Generator: Adobe Illustrator 16.0.0, SVG Export Plug-In . SVG Version: 6.00 Build 0)  -->
<!DOCTYPE svg PUBLIC "-//W3C//DTD SVG 1.1//EN" "http://www.w3.org/Graphics/SVG/1.1/DTD/svg11.dtd">
<svg version="1.1" id="Layer_1" xmlns="http://www.w3.org/2000/svg" xmlns:xlink="http://www.w3.org/1999/xlink" x="0px" y="0px"
	 width="800px" height="800px" viewBox="0 0 800 800" enable-background="new 0 0 800 800" xml:space="preserve">
<rect fill="#FFFFFF" width="800" height="800"/>
<g>
	
		<rect x="458.247" y="629.797" transform="matrix(0.7071 0.7071 -0.7071 0.7071 634.6027 -270.4767)" fill="#E1E1E1" width="371.099" height="2"/>
</g>
<g>
	
		<rect x="-9.948" y="132.929" transform="matrix(0.7071 0.7071 -0.7071 0.7071 137.7365 -64.6673)" fill="#E1E1E1" width="313.753" height="2"/>
</g>
<g>
	
		<rect x="155.298" y="471.574" transform="matrix(0.7071 0.7071 -0.7071 0.7071 499.5303 77.4305)" fill="#E1E1E1" width="2" height="340.255"/>
</g>
<path fill="none" stroke="#FFFFFF" stroke-width="2" stroke-miterlimit="10" d="M276.597,521.403"/>
<g>
	
		<rect x="651.497" y="-27.742" transform="matrix(0.7071 0.7071 -0.7071 0.7071 293.9987 -418.7676)" fill="#E1E1E1" width="2" height="346.493"/>
</g>
<g>
	<g>
		<path fill="#E1E1E1" d="M361.467,463.941c3.721,0.365,7.549-0.018,11.152-0.969c5.391-1.424,8.391-5.412,11.603-9.635
			c8.696-11.443,15.963-24.555,26.073-34.818c11.338-11.51,25.916-18.85,40.516-25.251c5.947-2.611,11.914-5.281,17.414-8.767
			c2.383-1.509,4.998-3.38,6.766-5.749c0.955-1.279,1.668-2.701,1.955-4.295c0.091-0.499-1.08-0.824-1.969-0.762
			c-0.492,0.034-0.9,0.185-0.957,0.495c-0.828,4.6-5.314,7.623-8.98,9.941c-5.246,3.326-11.031,5.817-16.701,8.314
			c-13.012,5.728-25.326,12.134-36.299,21.339c-10.738,9.006-18.04,21.686-26.162,32.945c-3.145,4.359-6.333,9.887-10.705,13.143
			c-3.651,2.723-9.162,3.338-13.598,2.898C359.846,462.604,359.743,463.773,361.467,463.941z"/>
		<path fill="#E1E1E1" d="M576.26,338.464c-2.947-3.366-7.273-4.778-11.608-5.017c-0.159-0.009-0.317-0.028-0.478-0.034
			c-0.243-0.008-0.434,0.003-0.582,0.028c-1.188,0.057-2.383,0.152-3.527,0.494c-1.15,0.339-2.449,1.115-3.641,1.167
			c-2.604,0.114-5.211,0.189-7.818,0.251c-6.254,0.148-12.514,0.158-18.764-0.099c-0.739-0.031-1.488-0.061-2.24-0.094
			c-1.995-6.36-4.402-12.537-7.18-18.507c3.264-2.927,7.359-4.809,11.67-3.543c3.846,1.128,6.268,3.482,9.266,5.839
			c2.363,1.859,5.469,2.577,8.402,2.712c5.301,0.239,10.928-2.873,12.848-7.965c1.252-3.313,1.189-6.575-0.094-9.86
			c-0.48-1.231-1.316-2.471-2.238-3.422c-0.123-0.127-3.613-3.021-3.678-2.704c0.063-0.298-0.482-0.519-0.678-0.571
			c-13.67-3.65-29.957-3.834-42.295,3.934c-0.377,0.238-0.753,0.486-1.128,0.739c-26.667-43.839-74.892-73.119-129.956-73.119
			c-83.941,0-151.996,68.052-151.996,151.996c0,15.94,2.459,31.304,7.01,45.742c-1.502,1.537-2.595,3.447-3.004,5.527
			c-0.892,4.535,2.2,8.541,5.912,10.619c0.917,0.514,2.08,0.887,3.104,1.088c0.118,0.023,0.383,0.08,0.668,0.139
			c23.97,52.441,76.882,88.883,138.306,88.883c78.835,0,143.65-60.019,151.25-136.854c2.981-2.144,4.608-6.372,3.661-9.889
			c-0.541-2.014-1.484-3.598-2.915-4.988c0.001-0.089,0.003-0.177,0.003-0.267c0-9.41-0.861-18.618-2.498-27.556
			c8.48,1.482,17.545,3.687,24.906,7.887c5.906,3.37,13.654,2.079,18.615-2.267C581.566,353.5,581.264,344.182,576.26,338.464z
			 M557.457,359.365c-3.826-2.593-9.268-3.469-13.717-4.703c-3.562-0.988-7.708-2.199-11.992-3.068
			c-6.746-1.369-13.836-1.885-19.545,0.698c-1.884,0.851-3.016,2.168-3.641,3.718c-0.947,2.35-0.716,5.238-0.078,7.877
			c0.49,2.03,1.236,3.988,1.816,5.992c0.07,0.245,0.158,0.477,0.247,0.708c1.807,4.745,7.169,6.72,11.786,7.783
			c1.65,0.383,3.371,0.639,5.072,0.746c0.121,0.039,0.242,0.07,0.354,0.092c2.965,0.58,4.924,2.346,6.252,4.97
			c0.188,0.371,0.33,0.749,0.453,1.129c0.616,1.899,0.449,3.879-0.277,5.659c-0.971,2.381-2.928,4.398-5.352,5.348
			c-4.004,1.571-9.061-0.262-12.531-2.175c-2.036-1.125-3.937-2.527-5.705-4.085c-0.844-0.744-1.66-1.523-2.443-2.326
			c-0.719-0.735-1.406-1.491-2.074-2.254c-0.082-0.095-0.168-0.188-0.25-0.283c-0.502-0.581-0.967-1.181-1.415-1.79
			c-0.079-0.107-0.156-0.215-0.233-0.323c-1.281-1.786-2.352-3.681-3.259-5.656c-0.524-1.142-0.997-2.308-1.423-3.495
			c-0.059-0.163-0.119-0.326-0.177-0.49c-0.28-0.811-0.538-1.631-0.782-2.457c-0.076-0.258-0.154-0.514-0.227-0.773
			c-0.168-0.594-0.326-1.191-0.479-1.791c-0.66-2.604-1.188-5.252-1.67-7.882c-1.385-7.542-1.762-15.281-1.223-22.925
			c0.285-4.008,0.803-8.152,1.852-12.041c0.196-0.728,0.432-1.439,0.691-2.14c1.932-5.193,5.529-9.642,9.352-13.585
			c2.19-2.261,4.453-4.282,6.838-6.038c5.151-3.792,10.869-6.337,17.646-7.338c4.088-0.604,8.264-0.568,12.369-0.244
			c1.369,0.109,9.953,1.361,9.959,1.335c-0.043,0.21,0.254,0.378,0.389,0.451c7.691,4.065,8.629,14.035,2.381,19.821
			c-2.049,1.898-4.953,2.73-7.691,2.606c-4.064-0.184-5.127-2.707-7.756-4.872c-1.99-1.641-5.934-3.108-8.5-3.671
			c-4.761-1.042-9.241,0.214-12.977,2.79c-4.675,3.224-8.182,8.517-9.596,13.975c-0.869,3.357,0.641,4.628,3.672,5.66
			c4.536,1.541,9.643,1.75,14.386,2.018c0.022,0.001,0.046,0.002,0.069,0.004c6.254,0.355,12.527,0.355,18.789,0.259
			c2.795-0.044,5.588-0.124,8.379-0.223c1.02-0.039,2.041-0.081,3.059-0.127c2.236-0.099,4.205-1.541,6.592-1.639
			c11.324,0.399,15.449,14.037,9.213,22.199C570.076,362.025,562.814,362.995,557.457,359.365z M410.079,301.751l10.647-6.241
			c0,0,31.941,0.733,36.346,41.119C457.072,336.629,446.426,302.853,410.079,301.751z M343.351,439.566
			c1.228-0.331,2.467-0.715,3.718-1.141c3.038-1.035,6.148-2.324,9.361-3.775c18.708-8.447,18.708-40.434,18.708-40.434
			c0-21.123,6.035-29.572,38.625-23.537c17.529,3.246,34.878-3.987,43.793-16.902c0.04-0.057,0.079-0.114,0.118-0.171
			c0.255,0.012,0.513,0.022,0.765,0.035c13.945,0.724,20.965,12.973,19.25,29.013c-0.148,1.398-0.372,2.827-0.655,4.277
			c-0.303,1.55-0.675,3.125-1.134,4.724c-3.545,12.354-11.794,25.949-25.411,37.902c-5.588,4.904-12.085,9.529-19.53,13.682
			c-2.33,1.299-4.742,2.557-7.26,3.757c-0.197,0.095-0.389,0.184-0.584,0.276c-6.555,3.117-12.486,5.831-17.855,8.163
			c-3.861,1.677-7.431,3.155-10.744,4.453c-3.634,1.423-6.954,2.624-9.996,3.619c-0.737,0.496-1.484,0.978-2.227,1.464
			c-3.549,0.868-7.166,1.531-10.78,1.848c-15.75,2.479-20.397-4.266-26.613-14.971C343.225,448.963,342.834,444.694,343.351,439.566
			z M479.697,388.635c0.232-0.968,0.438-1.942,0.616-2.92l16.569-10.701c0.084,0.214,0.177,0.422,0.264,0.634
			c0.48,1.163,1.004,2.292,1.572,3.381l-20.603,15.013C478.726,392.274,479.256,390.465,479.697,388.635z M351.715,478.641
			c7.514,2.764,9.349,3.717,1.565,3.717c-7.784,0-60.538-24.646-60.538-24.646c0-0.014,0.011-0.023,0.016-0.035
			c0.031-0.084,0.163-0.125,0.391-0.122c0.779,0.009,2.655,0.499,5.289,1.327c5.479,1.725,14.218,4.908,23.094,8.24
			c4.68,1.758,9.394,3.554,13.69,5.2C343.008,475.306,349.417,477.795,351.715,478.641z M430.346,449.535
			c-0.006-0.61,0.014-1.192,0.039-1.77c2.774-1.802,5.494-3.68,8.154-5.627c5.228-3.825,10.292-8.007,15.027-12.537
			c4.65,0.234,9.207,1.162,12.809,2.18c3.703,1.047,13.732,8.562,23.91,18.764c-11.367,17.498-26.881,32.049-45.15,42.27
			C433.086,475.327,429.068,464.803,430.346,449.535z M382.852,234.155c50.431,0,95.025,25.864,122.105,65.483
			c-29.061-34.322-72.969-59.769-122.105-59.769c-49.136,0-93.045,25.447-122.106,59.769
			C287.828,260.021,332.423,234.155,382.852,234.155z M382.542,252.289c49.06,0,91.687,27.518,113.304,67.957
			c-1.81,3.618-2.571,7.479-3.195,11.465c-1.053,6.762-1.066,13.664-0.488,20.47c0.479,5.64,1.332,11.83,2.979,17.641
			c-4.697,3.465-9.441,6.881-14.139,10.357c0.357-5.547-0.334-11.055-2.521-16.068c-3.466-7.936-11.62-10.852-19.573-12.439
			c6.444-10.887,7.126-25.3-2.294-40.736c-21.727-35.609-60.352-29.575-73.629,9.049c-13.276,38.626-38.02,40.437-38.02,40.437
			c-56.596,14.405-53.109,44.658-39.229,63.367c11.852,15.977,23.032,18.99,35.234,16.358c-0.756,9.504,1.547,19.407,9.702,24.872
			c7.107,4.762,16.105,5.299,24.819,4.228c-6.046,3.639-13.388,7.74-20.563,6.931c-10.763-1.209-21.486-5.943-31.446-9.938
			c-8.65-3.467-17.183-7.236-25.619-11.195c-0.99-0.465-1.974-0.922-2.979-1.244c-9.33-13.404-8.643-31.135-8.48-46.646
			c0.086-8.186-0.106-16.527,0.548-24.675c0.756-9.394-8.265-14.043-16.415-13.947c-0.654-2.252-1.311-4.503-1.98-6.747
			c-0.755-2.538-0.5-5.159-1.056-7.736c-0.801-3.713-3.22-6.788-6.261-8.953c-0.565-0.402-1.163-0.753-1.775-1.078
			C275.249,290.973,324.375,252.289,382.542,252.289z M254.789,393.62c3.135,5.93,5.999,12.005,8.354,18.277
			c1.59,4.236,5.685,14.752,1.104,18.803C259.342,419.11,256.092,406.652,254.789,393.62z M243.576,442.332
			c-3.72-1.339-6.324-4.95-6.186-9.115c0.047-1.453,0.433-2.813,1.064-4.02c1.614-3.087,4.884-5.152,8.6-5.029
			c2.593,0.086,7.331,5.641,8.968,7.398c3.543,1.281,6.692,1.709,9.006,0.918c4.441-1.521,5.805-7.539,0.963-20.66
			c-2.924-7.926-7.286-16.542-11.667-24.325c-4.11-7.302-8.237-13.873-11.208-18.429c-3.974-2.614-6.542-7.161-6.376-12.267
			c0.257-7.802,6.789-13.918,14.591-13.664c2.85,0.095,5.47,1.033,7.641,2.556c3.775,2.649,6.186,7.083,6.024,12.036
			c-0.016,0.462-0.056,0.913-0.114,1.364c0.979,3.243,1.929,6.465,2.856,9.664c0.064,0.223,0.131,0.447,0.195,0.669
			c0.063,0.218,0.128,0.438,0.191,0.655c0.011-0.003,0.022-0.005,0.033-0.009l0.286,1.197l12.232,51.187l0.86,3.598l-0.963-6.965
			l-0.247-1.781l-9.242-46.399l-0.183-0.917l-0.083-0.419c0.009,0,0.018-0.002,0.027-0.002c0.426-0.032,0.856-0.049,1.294-0.035
			c6.789,0.221,12.111,5.906,11.889,12.694c-0.023,0.674-0.112,1.327-0.237,1.968c0.164,10.444-1.452,41.782,1.139,51.786
			c2.403,9.289,5.247,14.776,6.577,17.023c0.091,0.154,0.171,0.287,0.248,0.41c0.321,0.521,0.513,0.791,0.513,0.791
			s-0.66,0.307-1.672,0.755c-2.938,1.298-8.853,3.776-10.322,3.357c-0.07-0.021-0.132-0.045-0.181-0.079
			c-1.433-0.975-4.528-4.24-5.664-5.955c-0.089-0.135-0.169-0.262-0.232-0.375c-0.294-0.029-0.804-0.11-1.45-0.228
			c-2.815-0.511-8.229-1.714-9.84-2.343c-10.221-3.984-16.466-6.461-16.466-6.461C245.435,442.85,244.474,442.655,243.576,442.332z
			 M328.632,483.789c8.619,3.945,17.752,8.533,27.145,10.303c4.689,0.885,7.512-0.416,11.89-2.209
			c7.436-3.041,14.946-5.9,22.464-8.729c6.212-2.336,12.441-4.629,18.682-6.891c4.174,6.459,8.348,12.918,12.521,19.379
			c1.244,1.926,2.395,4.236,3.776,6.211c-13.323,4.682-27.646,7.236-42.569,7.236c-40.732,0-77.029-18.973-100.552-48.557
			C297.314,468.707,312.842,476.561,328.632,483.789z M403.623,519.971c-49.906,7.252-87.267-13.453-119.762-48.77
			c33.694,29.785,71.703,48.316,120.329,41.25c48.624-7.064,76.737-35.201,100.558-73.348
			C483.646,482.207,453.527,512.719,403.623,519.971z M500.935,430.464c-1.778-1.177-3.53-2.392-5.245-3.647
			c-4.064-2.98-12.543-8.66-10.297-14.689c2.469-6.619,9.447-12.296,14.445-16.985c2.175-2.04,4.398-4.036,6.658-5.988
			c1.227,1.169,2.533,2.279,3.904,3.297C509.186,405.819,505.93,418.597,500.935,430.464z"/>
		<path fill="#E1E1E1" d="M412.545,394.642c0.828,0,1.5-1.081,1.5-2.411c0-1.336-0.672-2.414-1.5-2.414
			c-0.832,0-1.506,1.078-1.506,2.414C411.039,393.561,411.713,394.642,412.545,394.642z"/>
		<path fill="#E1E1E1" d="M394.995,405.604c1.035,0.832,2.298,0.986,2.821,0.338c0.519-0.643,0.097-1.85-0.938-2.682
			c-1.041-0.834-2.304-0.988-2.823-0.342C393.534,403.566,393.953,404.768,394.995,405.604z"/>
		<path fill="#E1E1E1" d="M276.144,416.938c0,0-5.935-24.191-9.586-41.537c-0.355-1.687-0.689-3.273-1.016-4.806
			c-1.241-5.833-2.317-10.561-3.517-14.249c-1.103-3.392-2.316-5.921-3.873-7.611c-0.879-0.954-1.866-1.652-3.006-2.09
			c-5.934-2.282-10.498,3.195-10.498,3.195s-0.914,1.371,6.389,2.74c1.449,0.271,3.15,2.687,4.946,6.376
			c7.253,14.904,16.051,50.681,16.051,50.681L276.144,416.938z"/>
		<path fill="#E1E1E1" d="M550.012,303.74c9.133,5.022,1.828,11.411,1.828,11.411s6.447-0.005,5.934-8.216
			c-0.869-13.851-33.777-7.304-33.777-7.304S540.883,298.717,550.012,303.74z"/>
		<path fill="#E1E1E1" d="M515.256,379.964c2.799,0.697,10.287,4.192,12.584,7.089c2.299,2.898,4.096,3.098,4.596,0.401
			c0.498-2.696-1.5-5.494-5.094-5.693c-3.596-0.197-15.08-4.893-15.08-4.893C509.066,375.57,512.461,379.264,515.256,379.964z"/>
		<path fill="#E1E1E1" d="M258.094,434.271c-1.408-0.331-2.799-1.246-4.156-2.359c-1.012-0.828-2.005-1.764-2.974-2.654
			c-0.781-0.719-1.547-1.406-2.293-1.979c-2.292-1.756-5.173-0.035-6.306,0.784c-0.309,0.224-0.495,0.384-0.495,0.384
			c-0.575,0.543-0.779,1.058-0.688,1.545c0.473,2.557,9.136,4.365,15.746,5.838C264.798,437.576,261.397,435.051,258.094,434.271z"
			/>
		<path fill="#E1E1E1" d="M560.512,337.829c-4.652,1.164-20.762,0.909-31.939,0.567c-6.455-0.197-11.271-0.424-11.271-0.424
			s-1.469,1.47,2.568,1.836c1.092,0.1,4.617,0.212,9.2,0.356c12.38,0.389,32.54,1.007,33.757,2.216
			c10.979,10.905,11.104,2.002,9.805-1.335C571.762,338.802,567.857,335.994,560.512,337.829z"/>
	</g>
</g>
</svg>